# xmcd
#
# Track frame offsets: 
#        150
#        16467
#        34468
#        49142
#        75101
#        95967
#        115597
#        129989
#        145363
#        162954
#        186477
#        205743
#        235353
#        274601
#
# Disc length: 4264 seconds
#
# Revision: 0
# Processed by: cddbd v1.5.1PL2 Copyright (c) Steve Scherf et al.
# Submitted via: ExactAudioCopy v0.95b4
#
DISCID=c210a60e
DTITLE=Tightrope - Rooms
DYEAR=1900
DGENRE=Blues
TTITLE0=Secret Mission
TTITLE1=Travellers Bad Luck
TTITLE2=Golden Shirt
TTITLE3=Far Away So Close
TTITLE4=Key To Your Ferrari
TTITLE5=Jockey Full Of Bourbon
TTITLE6=Swingin' Eels
TTITLE7=Seagull
TTITLE8=Jack Nietsche Theme
TTITLE9=Something Went Wrong
TTITLE10=Jump On The Bus
TTITLE11=The Friends Of Dean Martinez
TTITLE12=Rooms
TTITLE13=Video
EXTD=
EXTT0=
EXTT1=
EXTT2=
EXTT3=
EXTT4=
EXTT5=
EXTT6=
EXTT7=
EXTT8=
EXTT9=
EXTT10=
EXTT11=
EXTT12=
EXTT13=
PLAYORDER=
